Format;AVI
 
File Size:6.81gb
 
Video
 ID : 0
 Format : MPEG-4 Visual
 Format profile : Advanced Simple@L5
 Format settings, BVOP : Yes
 Format settings, QPel : No
 Format settings, GMC : No warppoints
 Format settings, Matrix : Custom
 Codec ID : XVID
 Codec ID/Hint : XviD
 Duration : 1h 25mns
 Bit rate : 1881 Kbps
 Width : 680 pixels
 Height : 384 pixels
 Display aspect ratio : 16:9
 Frame rate : 29.970 fps
 Color space : YUV
 Chroma subsampling : 4:2:0
 Bit depth : 8 bits
 Scan type : Progressive
 Bits/(Pixel*Frame) : 0.113
 Stream size : 28.7 MiB (3%)
 Writing library : XviD 1.2.1 (UTC 2008-12-04)
 
Audio
 ID : 1
 Format : AC-3
 Format/Info : Audio Coding 3
 Codec ID : 2000
 Duration : 1h 25mn
 Bit rate mode : Constant
 Bit rate : 192 Kbps
 Channel(s) : 2 channels
 Sampling rate : 48.0 KHz
 Stream size : 117 MiB (11%)
 Alignment : Aligned on interleaves
 


Duration:7 hours+
 
Release Date:2011
 
Language:English



Brotherhood Of Blood
 


Dance Of The Dead
 


Dark Floors
 


The Last House In The Woods
 


Room 205
 


No Man's Land The Rise Of Reeker
 


The Substitute
 


Trackman
 





